1.8Hz3min_grf.mot
version=1
nRows=17
nColumns 19
inDegrees=yes
endheader
time	1_ground_force_vx	1_ground_force_vy	1_ground_force_vz	1_ground_force_px	1_ground_force_py	1_ground_force_pz	1_ground_torque_x	1_ground_torque_y	1_ground_torque_z	2_ground_force_vx	2_ground_force_vy	2_ground_force_vz	2_ground_force_px	2_ground_force_py	2_ground_force_pz	2_ground_torque_x	2_ground_torque_y	2_ground_torque_z
            2.502500	            5.298501	          173.474416	          -12.751360	           -0.226421	            0.005957	           -0.343012	           -0.014955	           -0.489623	            0.035990	           12.288918	          153.395702	           13.494027	           -0.219861	            0.005951	           -0.770982	           -0.001599	           -0.019964	           -0.001756
            2.503000	            4.931975	          170.410419	          -12.901158	           -0.226272	            0.005958	           -0.343297	           -0.013276	           -0.458728	            0.034729	           12.348211	          149.898582	           13.059170	           -0.220168	            0.005948	           -0.770429	           -0.006338	           -0.076934	           -0.006702
            2.503500	            4.750430	          167.884305	          -12.361254	           -0.226787	            0.005958	           -0.343146	           -0.014205	           -0.502021	            0.036964	           11.938586	          146.581873	           13.188307	           -0.220428	            0.005948	           -0.770516	           -0.003366	           -0.041323	           -0.003718
            2.504000	            4.659906	          164.638522	          -12.145660	           -0.227023	            0.005957	           -0.343111	           -0.014053	           -0.496493	            0.036627	           11.850683	          144.925713	           12.760080	           -0.219908	            0.005950	           -0.770695	           -0.002602	           -0.031826	           -0.002802
            2.504500	            4.386058	          161.753038	          -11.882209	           -0.226844	            0.005958	           -0.343204	           -0.012117	           -0.446876	            0.032827	           11.907961	          141.981183	           12.280266	           -0.220951	            0.005947	           -0.770742	           -0.006764	           -0.080644	           -0.006975
            2.505000	            4.294898	          158.868770	          -11.894349	           -0.226779	            0.005958	           -0.343276	           -0.013313	           -0.492457	            0.036870	           11.588570	          139.586748	           12.084152	           -0.220774	            0.005950	           -0.771394	           -0.004333	           -0.052194	           -0.004518
            2.505500	            4.112913	          156.884042	          -11.489693	           -0.226372	            0.005956	           -0.342838	           -0.012472	           -0.475725	            0.034841	           11.785212	          137.009835	           11.934089	           -0.220683	            0.005945	           -0.770098	           -0.006099	           -0.070899	           -0.006176
            2.506000	            4.206605	          153.997254	          -10.906161	           -0.227415	            0.005953	           -0.341996	           -0.012178	           -0.445821	            0.031573	           11.419677	          134.430755	           11.831193	           -0.220590	            0.005948	           -0.770706	           -0.007402	           -0.087139	           -0.007669
            2.506500	            3.932889	          150.390707	          -10.645802	           -0.226720	            0.005957	           -0.342998	           -0.011135	           -0.425776	            0.030140	           11.333247	          132.405112	           11.730149	           -0.220994	            0.005947	           -0.770864	           -0.005659	           -0.066112	           -0.005857
            2.507000	            3.979860	          147.325217	          -10.429777	           -0.227221	            0.005953	           -0.342219	           -0.012286	           -0.454801	            0.032197	           11.342346	          129.828694	           11.251669	           -0.221047	            0.005947	           -0.771080	           -0.007717	           -0.088336	           -0.007656
            2.507500	            3.476683	          144.439885	          -10.211613	           -0.227262	            0.005957	           -0.343106	           -0.011441	           -0.475334	            0.033605	           11.493529	          126.882844	           11.241096	           -0.220629	            0.005948	           -0.770672	           -0.008833	           -0.097508	           -0.008639
            2.508000	            3.386093	          141.554634	           -9.994473	           -0.226878	            0.005957	           -0.342967	           -0.010312	           -0.431104	            0.030438	           11.271099	          123.568500	           10.900872	           -0.221549	            0.005946	           -0.771098	           -0.007456	           -0.081744	           -0.007211
            2.508500	            3.157453	          139.030674	           -9.958870	           -0.226831	            0.005956	           -0.342789	           -0.009636	           -0.424289	            0.030392	           11.324451	          121.728357	           10.565785	           -0.221201	            0.005945	           -0.770652	           -0.011883	           -0.127734	           -0.011087
            2.509000	            3.158075	          136.867092	           -9.876434	           -0.226573	            0.005952	           -0.341811	           -0.009057	           -0.392524	            0.028325	           10.724043	          119.332222	           10.557502	           -0.221819	            0.005945	           -0.771058	           -0.004789	           -0.053285	           -0.004714
            2.509500	            3.022130	          133.800780	           -9.476530	           -0.227160	            0.005954	           -0.342400	           -0.008690	           -0.384758	            0.027251	           10.873733	          116.755992	           10.172819	           -0.222210	            0.005938	           -0.769544	           -0.008096	           -0.086932	           -0.007574
            2.510000	            2.747515	          131.997873	           -9.437721	           -0.227610	            0.005951	           -0.341585	           -0.008649	           -0.415506	            0.029708	           10.644697	          115.282797	            9.933021	           -0.222435	            0.005942	           -0.770975	           -0.004721	           -0.051132	           -0.004406
            2.510500	            2.611214	          128.391550	           -9.223559	           -0.227289	            0.005952	           -0.341873	           -0.006270	           -0.308290	            0.022147	           10.422432	          111.967114	            9.968222	           -0.222766	            0.005943	           -0.771692	           -0.010841	           -0.116463	           -0.010368
